<svg xmlns="http://www.w3.org/2000/svg" width="88" height="78.305" viewBox="0 0 88 78.305">
  <g id="Group_1739" data-name="Group 1739" transform="translate(-34 -31)">
    <g id="Group_1738" data-name="Group 1738" transform="translate(34 31)">
      <g id="Group_733" data-name="Group 733">
        <g id="Group_732" data-name="Group 732">
          <path id="Path_252" data-name="Path 252" d="M205.962,155.529l3.056-17.741s-43.614-.015-76.236,38.534C132.771,176.327,159.266,156.279,205.962,155.529Z" transform="translate(-132.782 -110.559)" fill="#f06d4b"/>
          <g id="Group_731" data-name="Group 731" transform="translate(20.184)">
            <path id="Path_763" data-name="Path 763" d="M167.238,149.845a139.591,139.591,0,0,0-21.544,6.108l-3.419,19.535H197l3.045-17.4H165.8Z" transform="translate(-142.275 -97.183)" fill="#0070ac"/>
            <path id="Path_764" data-name="Path 764" d="M152.172,124.775,145.684,162.3a106.685,106.685,0,0,1,16.971-7.971c1.685-.614,3.326-1.161,4.929-1.654l1.815-10.505h33.844l3.009-17.4Z" transform="translate(-138.436 -124.775)" fill="#0070ac"/>
          </g>
        </g>
      </g>
    </g>
  </g>
</svg>
